<mxfile host="Electron" agent="Mozilla/5.0 (Macintosh; Intel Mac OS X 10_15_7) AppleWebKit/537.36 (KHTML, like Gecko) draw.io/24.7.17 Chrome/128.0.6613.36 Electron/32.0.1 Safari/537.36" version="24.7.17">
  <diagram name="페이지-1" id="JsntxF9DTXrNvEEO23J5">
    <mxGraphModel dx="1121" dy="656" grid="1" gridSize="10" guides="1" tooltips="1" connect="1" arrows="1" fold="1" page="1" pageScale="1" pageWidth="827" pageHeight="1169" math="0" shadow="0">
      <root>
        <mxCell id="0" />
        <mxCell id="1" parent="0" />
        <mxCell id="PIGD796fRFX0F7PJ0Yfv-20" value="" style="rounded=0;whiteSpace=wrap;html=1;strokeColor=none;fillColor=#fff2cc;opacity=70;" vertex="1" parent="1">
          <mxGeometry x="342" y="658" width="178" height="10" as="geometry" />
        </mxCell>
        <mxCell id="PIGD796fRFX0F7PJ0Yfv-14" value="" style="rounded=0;whiteSpace=wrap;html=1;strokeColor=none;fillColor=#f8cecc;opacity=70;" vertex="1" parent="1">
          <mxGeometry x="94" y="587" width="56" height="10" as="geometry" />
        </mxCell>
        <mxCell id="PIGD796fRFX0F7PJ0Yfv-13" value="" style="rounded=0;whiteSpace=wrap;html=1;strokeColor=none;fillColor=#d5e8d4;opacity=70;" vertex="1" parent="1">
          <mxGeometry x="94" y="537" width="56" height="10" as="geometry" />
        </mxCell>
        <mxCell id="PIGD796fRFX0F7PJ0Yfv-1" value="x가 C1 클래스에 속할 것이다." style="text;strokeColor=none;align=center;fillColor=none;html=1;verticalAlign=middle;whiteSpace=wrap;rounded=0;" vertex="1" parent="1">
          <mxGeometry x="70" y="530" width="90" height="30" as="geometry" />
        </mxCell>
        <mxCell id="PIGD796fRFX0F7PJ0Yfv-3" value="=" style="text;strokeColor=none;align=center;fillColor=none;html=1;verticalAlign=middle;whiteSpace=wrap;rounded=0;fontSize=19;" vertex="1" parent="1">
          <mxGeometry x="160" y="530" width="20" height="30" as="geometry" />
        </mxCell>
        <mxCell id="PIGD796fRFX0F7PJ0Yfv-4" value="=" style="text;strokeColor=none;align=center;fillColor=none;html=1;verticalAlign=middle;whiteSpace=wrap;rounded=0;fontSize=19;" vertex="1" parent="1">
          <mxGeometry x="160" y="580" width="20" height="30" as="geometry" />
        </mxCell>
        <mxCell id="PIGD796fRFX0F7PJ0Yfv-5" value="P(C1 | x) &lt;font color=&quot;#67ab9f&quot;&gt;&amp;gt;&lt;/font&gt;&lt;font color=&quot;#4d9900&quot;&gt; &lt;/font&gt;P(C2 | x)" style="text;strokeColor=none;align=left;fillColor=none;html=1;verticalAlign=middle;whiteSpace=wrap;rounded=0;fontSize=15;" vertex="1" parent="1">
          <mxGeometry x="190" y="530" width="140" height="30" as="geometry" />
        </mxCell>
        <mxCell id="PIGD796fRFX0F7PJ0Yfv-22" style="edgeStyle=orthogonalEdgeStyle;rounded=0;orthogonalLoop=1;jettySize=auto;html=1;strokeWidth=4;fillColor=#dae8fc;strokeColor=#6c8ebf;" edge="1" parent="1">
          <mxGeometry relative="1" as="geometry">
            <mxPoint x="115" y="640" as="sourcePoint" />
            <mxPoint x="190" y="710" as="targetPoint" />
            <Array as="points">
              <mxPoint x="115" y="710" />
            </Array>
          </mxGeometry>
        </mxCell>
        <mxCell id="PIGD796fRFX0F7PJ0Yfv-7" value="x가 C2 클래스에 속할 것이다." style="text;strokeColor=none;align=center;fillColor=none;html=1;verticalAlign=middle;whiteSpace=wrap;rounded=0;" vertex="1" parent="1">
          <mxGeometry x="70" y="580" width="90" height="30" as="geometry" />
        </mxCell>
        <mxCell id="PIGD796fRFX0F7PJ0Yfv-8" value="P(C1 | x) &lt;font color=&quot;#ff0080&quot;&gt;&amp;lt;&lt;/font&gt; P(C2 | x)" style="text;strokeColor=none;align=left;fillColor=none;html=1;verticalAlign=middle;whiteSpace=wrap;rounded=0;fontSize=15;" vertex="1" parent="1">
          <mxGeometry x="190" y="580" width="140" height="30" as="geometry" />
        </mxCell>
        <mxCell id="PIGD796fRFX0F7PJ0Yfv-9" value="=" style="text;strokeColor=none;align=center;fillColor=none;html=1;verticalAlign=middle;whiteSpace=wrap;rounded=0;fontSize=19;" vertex="1" parent="1">
          <mxGeometry x="340" y="530" width="20" height="30" as="geometry" />
        </mxCell>
        <mxCell id="PIGD796fRFX0F7PJ0Yfv-10" value="=" style="text;strokeColor=none;align=center;fillColor=none;html=1;verticalAlign=middle;whiteSpace=wrap;rounded=0;fontSize=19;" vertex="1" parent="1">
          <mxGeometry x="340" y="580" width="20" height="30" as="geometry" />
        </mxCell>
        <mxCell id="PIGD796fRFX0F7PJ0Yfv-11" value="P(C1 | x) - P(C2 | x)&amp;nbsp;&lt;font color=&quot;#67ab9f&quot;&gt;&amp;gt;&lt;/font&gt; 0" style="text;strokeColor=none;align=left;fillColor=none;html=1;verticalAlign=middle;whiteSpace=wrap;rounded=0;fontSize=15;" vertex="1" parent="1">
          <mxGeometry x="370" y="530" width="170" height="30" as="geometry" />
        </mxCell>
        <mxCell id="PIGD796fRFX0F7PJ0Yfv-12" value="P(C1 | x) - P(C2 | x)&amp;nbsp;&lt;font color=&quot;#ff0080&quot;&gt;&amp;lt;&lt;/font&gt;&amp;nbsp;0" style="text;strokeColor=none;align=left;fillColor=none;html=1;verticalAlign=middle;whiteSpace=wrap;rounded=0;fontSize=15;" vertex="1" parent="1">
          <mxGeometry x="370" y="580" width="170" height="30" as="geometry" />
        </mxCell>
        <mxCell id="PIGD796fRFX0F7PJ0Yfv-16" value="g(x) = P(C1 | x) - P(C2 | x)" style="text;strokeColor=#7EA6E0;align=center;fillColor=none;html=1;verticalAlign=middle;whiteSpace=wrap;rounded=0;fontSize=15;" vertex="1" parent="1">
          <mxGeometry x="330" y="640" width="200" height="30" as="geometry" />
        </mxCell>
        <mxCell id="PIGD796fRFX0F7PJ0Yfv-18" value="따라서 &lt;b&gt;판별함수&lt;/b&gt;는" style="text;strokeColor=#6c8ebf;align=center;fillColor=#dae8fc;html=1;verticalAlign=middle;whiteSpace=wrap;rounded=0;" vertex="1" parent="1">
          <mxGeometry x="210" y="640" width="120" height="30" as="geometry" />
        </mxCell>
        <mxCell id="PIGD796fRFX0F7PJ0Yfv-19" value="&lt;font style=&quot;font-size: 11px;&quot;&gt;- 판별함수 g(x) &amp;gt; 0 이면 P(C1 | x) &amp;gt; P(C2 | x) 이므로 C1 클래스&lt;br&gt;&lt;/font&gt;&lt;div&gt;&lt;font style=&quot;font-size: 11px;&quot;&gt;- 판별함수 g(x) &amp;lt; 0 이면 P(C1 | x) &amp;gt; P(C2 | x) 이므로 C2 클래스&lt;br&gt;&lt;/font&gt;&lt;/div&gt;" style="text;strokeColor=#7EA6E0;align=center;fillColor=none;html=1;verticalAlign=middle;whiteSpace=wrap;rounded=0;fontSize=15;" vertex="1" parent="1">
          <mxGeometry x="210" y="670" width="320" height="80" as="geometry" />
        </mxCell>
      </root>
    </mxGraphModel>
  </diagram>
</mxfile>
